<svg width="17" height="12" viewBox="0 0 17 12" fill="none" xmlns="http://www.w3.org/2000/svg">
<path d="M5.9378 2.0785C6.40869 1.02358 8.3127 0.991626 8.87099 1.98265L8.91824 2.0791L9.5537 3.50174C9.69933 3.828 9.93467 4.12656 10.2438 4.37727C10.553 4.62799 10.9288 4.82504 11.3459 4.95512L11.5168 5.00394L13.3751 5.48981C14.7531 5.85029 14.7949 7.30789 13.5011 7.73529L13.3751 7.77146L11.5168 8.25793C11.0904 8.36934 10.7003 8.54946 10.3726 8.78615C10.045 9.02283 9.78749 9.31056 9.61748 9.62993L9.5537 9.76013L8.91903 11.1834C8.44814 12.2383 6.54413 12.2702 5.98662 11.2798L5.9378 11.1834L5.30313 9.76074C5.1576 9.43436 4.9223 9.13569 4.61313 8.88486C4.30396 8.63404 3.92811 8.4369 3.51093 8.30675L3.34084 8.25793L1.4825 7.77206C0.103702 7.41158 0.0619678 5.95398 1.35651 5.52719L1.4825 5.48981L3.34084 5.00394C3.76703 4.89246 4.15703 4.7123 4.48453 4.47562C4.81204 4.23894 5.06943 3.95125 5.23935 3.63194L5.30313 3.50174L5.9378 2.0785ZM7.42842 2.46791L6.79374 3.89055C6.57199 4.38805 6.21125 4.84257 5.73664 5.22246C5.26203 5.60235 4.68495 5.89847 4.0456 6.09021L3.84874 6.14507L1.99039 6.63094L3.84874 7.1168C4.49861 7.28656 5.09234 7.56272 5.58857 7.92606C6.08481 8.28939 6.47162 8.73116 6.72209 9.22062L6.79374 9.37132L7.42842 10.794L8.06309 9.37132C8.28484 8.87382 8.64558 8.4193 9.12019 8.03941C9.5948 7.65952 10.1719 7.3634 10.8112 7.17166L11.0081 7.1174L12.8664 6.63094L11.0081 6.14507C10.3582 5.97531 9.76449 5.69915 9.26826 5.33581C8.77202 4.97248 8.38521 4.53071 8.13474 4.04125L8.06387 3.89055L7.42842 2.46791ZM13.7279 1.08921e-07C13.8752 -1.42247e-07 14.0196 0.0316346 14.1446 0.0913089C14.2696 0.150983 14.3702 0.236304 14.435 0.337575L14.4728 0.408104L14.7484 1.02659L15.5571 1.23757C15.7047 1.27597 15.8341 1.34705 15.9289 1.44182C16.0238 1.53658 16.0797 1.65075 16.0896 1.76987C16.0996 1.88899 16.0631 2.00768 15.9848 2.11092C15.9066 2.21416 15.7901 2.29728 15.65 2.34976L15.5571 2.3787L14.7492 2.58968L14.4736 3.20877C14.4233 3.32175 14.3304 3.42078 14.2066 3.49329C14.0828 3.56581 13.9336 3.60855 13.778 3.6161C13.6224 3.62366 13.4674 3.59568 13.3326 3.53572C13.1978 3.47576 13.0893 3.38652 13.0208 3.2793L12.983 3.20877L12.7074 2.59028L11.8987 2.3793C11.751 2.3409 11.6216 2.26982 11.5268 2.17506C11.432 2.0803 11.3761 1.96612 11.3662 1.847C11.3562 1.72789 11.3927 1.60919 11.4709 1.50595C11.5492 1.40272 11.6657 1.31959 11.8058 1.26711L11.8987 1.23818L12.7066 1.02719L12.9822 0.408104C13.0353 0.289004 13.1357 0.185611 13.2695 0.112424C13.4032 0.0392365 13.5635 -7.55212e-05 13.7279 1.08921e-07Z" fill="black"/>
</svg>
