<svg width="149" height="36" fill="none" xmlns="http://www.w3.org/2000/svg"><path d="M117.488 6.656a10.276 10.276 0 0 0-9.493 6.35 10.284 10.284 0 0 0 2.232 11.2 10.28 10.28 0 1 0 7.261-17.55Zm0 15.989a5.71 5.71 0 0 1-5.596-6.825 5.71 5.71 0 1 1 9.634 5.153 5.71 5.71 0 0 1-4.038 1.67v.002Z" fill="#FDD314"/><path d="M21.48 15.416a6.559 6.559 0 0 1 1.259 4.072 6.345 6.345 0 0 1-2.48 5.275 10.655 10.655 0 0 1-6.742 1.944H.997V.349h12.149a10.43 10.43 0 0 1 6.5 1.832 5.978 5.978 0 0 1 2.389 5.016 6.044 6.044 0 0 1-4.11 5.887 6.6 6.6 0 0 1 3.555 2.332ZM6.626 11.085h5.556a5.852 5.852 0 0 0 3.316-.76 2.666 2.666 0 0 0 1.092-2.35 2.756 2.756 0 0 0-1.092-2.406 5.74 5.74 0 0 0-3.316-.777H6.626v6.293Zm9.612 10.384a2.968 2.968 0 0 0 1.056-2.536 3.067 3.067 0 0 0-1.056-2.591 5.59 5.59 0 0 0-3.389-.814H6.626v6.737h6.223a5.686 5.686 0 0 0 3.393-.796h-.004ZM38.2 7.863l-.037 5.109a6.517 6.517 0 0 0-2.74-.63 4.511 4.511 0 0 0-3.389 1.2 4.613 4.613 0 0 0-1.167 3.351v9.81h-5.569s.018-17.133.006-18.769h4.933l.371 3.22a5.5 5.5 0 0 1 2.2-2.721 6.228 6.228 0 0 1 3.389-.944c.687-.02 1.37.108 2.003.374ZM40.752 26.707V7.938h5.593v18.769h-5.593ZM100.313 12.124v7.293a2.897 2.897 0 0 0 .815 2.276 3.064 3.064 0 0 0 2.112.722 7.724 7.724 0 0 0 1.852-.26v4.333a8.913 8.913 0 0 1-3.223.518 6.92 6.92 0 0 1-5.315-1.962 7.772 7.772 0 0 1-1.833-5.516v-7.4h-3.556V7.945h3.556V3.539l5.593-1.814v6.22h4.779v4.183l-4.78-.004ZM83.062 7.457a7.6 7.6 0 0 0-3.444.777 6.615 6.615 0 0 0-2.556 2.258V2.976L71.469 4.79v21.917h5.593V16.193a4.465 4.465 0 0 1 1.112-3.184 3.868 3.868 0 0 1 2.963-1.185 2.74 2.74 0 0 1 2.278.907 4.6 4.6 0 0 1 .722 2.869v11.106h5.593V15.34c0-5.256-2.223-7.884-6.668-7.884ZM148.85 15.345V26.71h-5.593V15.604a4.6 4.6 0 0 0-.722-2.869 2.734 2.734 0 0 0-2.278-.907 3.867 3.867 0 0 0-2.963 1.185 4.465 4.465 0 0 0-1.111 3.183V26.71h-5.593s-.047-17.193-.047-18.769h5.01l.37 2.961a6.899 6.899 0 0 1 2.611-2.554 7.424 7.424 0 0 1 3.648-.889c4.445-.001 6.668 2.627 6.668 7.886ZM63.32 7.939v2.665a6.106 6.106 0 0 0-2.445-2.295 7.425 7.425 0 0 0-3.556-.852 7.855 7.855 0 0 0-7.3 4.461 11.736 11.736 0 0 0 0 9.81 7.857 7.857 0 0 0 7.3 4.461 7.219 7.219 0 0 0 6-3.184v3.258a4.523 4.523 0 0 1-1.185 3.424 5.04 5.04 0 0 1-3.593 1.129 14.989 14.989 0 0 1-6.741-1.7l-.852 4.147a16.444 16.444 0 0 0 7.779 1.74c3.31 0 5.828-.777 7.557-2.332 1.729-1.555 2.593-3.825 2.592-6.812V7.941L63.32 7.94Zm-4.727 13.7a4.69 4.69 0 1 1 4.822-4.688 4.756 4.756 0 0 1-4.827 4.683l.005.005Z" fill="#000"/><path d="M117.491 6.806a10.283 10.283 0 1 0 .005 20.565 10.283 10.283 0 0 0-.005-20.565Zm0 15.989a5.711 5.711 0 1 1 0-11.422 5.711 5.711 0 0 1 0 11.422Z" fill="#FDD314"/><path d="M21.483 15.566a6.558 6.558 0 0 1 1.259 4.072 6.346 6.346 0 0 1-2.481 5.275 10.655 10.655 0 0 1-6.741 1.944H1.003V.5h12.146a10.43 10.43 0 0 1 6.5 1.832 5.977 5.977 0 0 1 2.389 5.016 6.043 6.043 0 0 1-4.111 5.887 6.6 6.6 0 0 1 3.556 2.331ZM6.629 11.235h5.556a5.853 5.853 0 0 0 3.316-.759 2.666 2.666 0 0 0 1.092-2.351 2.755 2.755 0 0 0-1.09-2.406 5.74 5.74 0 0 0-3.316-.777H6.629v6.293Zm9.612 10.384a2.97 2.97 0 0 0 1.056-2.536 3.066 3.066 0 0 0-1.056-2.591 5.588 5.588 0 0 0-3.39-.814H6.63v6.737h6.223a5.685 5.685 0 0 0 3.393-.8l-.004.004ZM38.203 8.013l-.037 5.109a6.516 6.516 0 0 0-2.74-.63 4.511 4.511 0 0 0-3.389 1.2 4.614 4.614 0 0 0-1.167 3.351v9.81h-5.567s.018-17.133.006-18.769h4.933l.371 3.22a5.5 5.5 0 0 1 2.2-2.721 6.227 6.227 0 0 1 3.389-.944 4.833 4.833 0 0 1 2.001.374ZM40.755 26.857V8.088h5.593v18.769h-5.593ZM100.316 12.274v7.293a2.878 2.878 0 0 0 .815 2.276 3.063 3.063 0 0 0 2.112.722 7.73 7.73 0 0 0 1.852-.259v4.332a8.913 8.913 0 0 1-3.223.518 6.923 6.923 0 0 1-5.315-1.962 7.776 7.776 0 0 1-1.833-5.516v-7.4h-3.556V8.1h3.556V3.689l5.593-1.814V8.1h4.779v4.183l-4.78-.009ZM83.065 7.607a7.6 7.6 0 0 0-3.444.777 6.612 6.612 0 0 0-2.556 2.258V3.126L71.472 4.94v21.917h5.593V16.343a4.463 4.463 0 0 1 1.112-3.184 3.871 3.871 0 0 1 2.963-1.185 2.74 2.74 0 0 1 2.278.907 4.6 4.6 0 0 1 .722 2.869v11.106h5.593V15.491c-.001-5.256-2.224-7.884-6.668-7.884ZM148.853 15.5v11.36h-5.593V15.754a4.599 4.599 0 0 0-.722-2.869 2.742 2.742 0 0 0-2.278-.907 3.869 3.869 0 0 0-2.963 1.185 4.464 4.464 0 0 0-1.111 3.183V26.86h-5.593s-.047-17.193-.047-18.769h5.01l.37 2.961a6.899 6.899 0 0 1 2.611-2.554 7.426 7.426 0 0 1 3.648-.889c4.445-.001 6.667 2.63 6.668 7.891ZM63.323 8.09v2.664a6.108 6.108 0 0 0-2.445-2.3 7.425 7.425 0 0 0-3.556-.852 7.855 7.855 0 0 0-7.3 4.461 11.736 11.736 0 0 0 0 9.81 7.857 7.857 0 0 0 7.3 4.461 7.219 7.219 0 0 0 6-3.184v3.258a4.527 4.527 0 0 1-1.185 3.424 5.04 5.04 0 0 1-3.593 1.13 14.99 14.99 0 0 1-6.741-1.7l-.852 4.146a16.444 16.444 0 0 0 7.779 1.74c3.31 0 5.828-.777 7.557-2.332 1.729-1.555 2.593-3.825 2.592-6.812V8.091l-5.556-.002Zm-4.727 13.7a4.69 4.69 0 1 1 4.822-4.689 4.756 4.756 0 0 1-4.827 4.683l.005.005Z" fill="#000"/></svg>