<svg width="513" height="539" viewBox="0 0 513 539" fill="none" xmlns="http://www.w3.org/2000/svg">
<path d="M410.665 416.973C412.303 449.89 379.542 473.618 348.781 461.787V461.787C328.723 454.072 306.001 461.416 294.253 479.411V479.411C276.234 507.012 235.764 506.927 217.83 479.271V479.271C206.139 461.244 183.433 453.824 163.359 461.484V461.484C132.567 473.234 99.8745 449.39 101.629 416.479V416.479C102.772 395.016 88.759 375.66 68.0106 370.049V370.049C36.197 361.446 23.7449 322.954 44.5049 297.358V297.358C58.0406 280.669 58.0758 256.79 44.5916 240.06V240.06C23.9091 214.399 36.484 175.936 68.3244 167.423V167.423C89.0844 161.873 103.159 142.572 102.082 121.11V121.11C100.431 88.193 133.214 64.4715 163.977 76.2985V76.2985C184.03 84.0081 206.757 76.6696 218.502 58.6798V58.6798C236.521 31.0787 276.979 31.1477 294.904 58.8097V58.8097C306.592 76.845 329.3 84.2603 349.383 76.6086V76.6086C380.183 64.8734 412.888 88.7028 411.133 121.616V121.616C409.989 143.076 423.997 162.42 444.742 168.03V168.03C476.558 176.634 488.999 215.131 468.23 240.723V240.723C454.686 257.41 454.653 281.301 468.141 298.033V298.033C488.828 323.698 476.276 362.174 444.426 370.675V370.675C423.666 376.217 409.597 395.512 410.665 416.973V416.973Z" fill="#0695FB"/>
<path fill-rule="evenodd" clip-rule="evenodd" d="M372.847 152.173C381.967 158.138 384.523 170.351 378.559 179.471L244.437 384.599C242.874 386.989 240.811 389.012 238.39 390.526C235.969 392.041 233.248 393.012 230.416 393.372C227.583 393.732 224.706 393.473 221.983 392.612C219.26 391.751 216.757 390.309 214.646 388.386L127.861 309.491C123.99 305.971 121.675 301.058 121.427 295.832C121.178 290.607 123.016 285.496 126.535 281.625C130.055 277.754 134.968 275.44 140.194 275.191C145.419 274.942 150.53 276.78 154.401 280.299L224.082 343.637L345.549 157.885C348.412 153.509 352.896 150.448 358.015 149.377C363.134 148.306 368.469 149.312 372.847 152.173Z" fill="white"/>
</svg>
